<svg width="200" height="200" viewBox="0 0 200 200" fill="none" xmlns="http://www.w3.org/2000/svg">
<rect width="200" height="200" rx="100" fill="white"/>
<path opacity="0.6" d="M176.905 163.784C187.17 151.444 194.31 136.814 197.72 121.133C201.13 105.452 200.71 89.1814 196.495 73.697C192.281 58.2126 184.396 43.9702 173.507 32.1747C162.619 20.3791 149.047 11.3774 133.94 5.93109C118.834 0.484744 102.637 -1.24604 86.7188 0.885164C70.8011 3.01637 55.6313 8.94685 42.4926 18.1749C29.3539 27.403 18.6329 39.6572 11.2365 53.9009C3.84015 68.1446 -0.0140285 83.9587 3.83677e-05 100.005C0.00543632 123.333 8.23267 145.913 23.2381 163.784L23.0951 163.906C23.5955 164.506 24.1673 165.02 24.682 165.613C25.3253 166.348 26.0186 167.041 26.6834 167.755C28.6848 169.927 30.7434 172.012 32.9021 173.969C33.5597 174.569 34.2388 175.126 34.9035 175.697C37.1909 177.669 39.5426 179.54 41.98 181.283C42.2945 181.497 42.5805 181.775 42.895 181.997V181.911C59.6362 193.682 79.6076 200 100.079 200C120.55 200 140.521 193.682 157.262 181.911V181.997C157.577 181.775 157.856 181.497 158.177 181.283C160.608 179.533 162.966 177.669 165.254 175.697C165.919 175.126 166.598 174.562 167.255 173.969C169.414 172.005 171.473 169.927 173.474 167.755C174.139 167.041 174.825 166.348 175.475 165.613C175.983 165.02 176.562 164.506 177.062 163.899L176.905 163.784ZM100.072 42.8687C106.433 42.8687 112.652 44.7536 117.942 48.2852C123.232 51.8167 127.354 56.8362 129.789 62.7089C132.223 68.5816 132.86 75.0438 131.619 81.2782C130.378 87.5127 127.315 93.2394 122.816 97.7342C118.318 102.229 112.586 105.29 106.347 106.53C100.107 107.77 93.6397 107.134 87.7622 104.701C81.8846 102.269 76.861 98.1492 73.3266 92.8639C69.7922 87.5786 67.9057 81.3647 67.9057 75.0081C67.9057 66.4842 71.2946 58.3094 77.3268 52.2821C83.3591 46.2548 91.5406 42.8687 100.072 42.8687ZM42.9378 163.784C43.0618 154.407 46.876 145.455 53.5551 138.865C60.2343 132.276 69.2413 128.579 78.6276 128.574H121.515C130.902 128.579 139.909 132.276 146.588 138.865C153.267 145.455 157.081 154.407 157.205 163.784C141.529 177.9 121.174 185.711 100.072 185.711C78.9689 185.711 58.6145 177.9 42.9378 163.784Z" fill="#EEEEEE"/>
</svg>
 